<svg xmlns="http://www.w3.org/2000/svg" width="1200" height="630" viewBox="0 0 1200 630" role="img" aria-labelledby="title desc">
  <title id="title">Kur'ân-ı Kerîm</title>
  <desc id="desc">Kur'ân-ı Kerîm okuma, tahlil ve kök sözlüğü uygulaması</desc>

  <defs>
    <linearGradient id="bg" x1="0" y1="0" x2="1" y2="1">
      <stop offset="0%" stop-color="#f8fafc" />
      <stop offset="100%" stop-color="#ecfeff" />
    </linearGradient>
    <linearGradient id="accent" x1="0" y1="0" x2="1" y2="1">
      <stop offset="0%" stop-color="#10b981" />
      <stop offset="100%" stop-color="#059669" />
    </linearGradient>
  </defs>

  <rect width="1200" height="630" fill="url(#bg)" />

  <circle cx="1070" cy="120" r="170" fill="#d1fae5" opacity="0.7" />
  <circle cx="130" cy="530" r="210" fill="#ccfbf1" opacity="0.6" />

  <rect x="90" y="90" width="1020" height="450" rx="32" fill="#ffffff" stroke="#d1fae5" stroke-width="2" />

  <rect x="140" y="160" width="96" height="96" rx="22" fill="url(#accent)" />
  <path d="M164 178h24a16 16 0 0 1 16 16v56a12 12 0 0 0-12-12h-40z" fill="none" stroke="#ffffff" stroke-width="6" stroke-linecap="round" stroke-linejoin="round"/>
  <path d="M212 178h-24a16 16 0 0 0-16 16v56a12 12 0 0 1 12-12h40z" fill="none" stroke="#ffffff" stroke-width="6" stroke-linecap="round" stroke-linejoin="round"/>

  <text x="270" y="215" font-family="Segoe UI, Arial, sans-serif" font-size="58" font-weight="800" fill="#0f172a">Kur'ân-ı Kerîm</text>
  <text x="270" y="278" font-family="Segoe UI, Arial, sans-serif" font-size="34" font-weight="600" fill="#065f46">Okuma • Tahlil • Kök Sözlüğü</text>

  <text x="140" y="370" font-family="Segoe UI, Arial, sans-serif" font-size="28" fill="#334155">Meal ve Mushaf modları, ayet detayları ve kök analizi.</text>

  <rect x="140" y="420" width="310" height="62" rx="31" fill="#10b981" />
  <text x="295" y="460" text-anchor="middle" font-family="Segoe UI, Arial, sans-serif" font-size="28" font-weight="700" fill="#ffffff">kelamullah.github.io</text>
</svg>
